# xmcd
#
# Track frame offsets:
#	150
#	13747
#	25133
#	36661
#	50888
#
# Disc length: 814 seconds
#
# Revision: 1
# Processed by: cddbd v1.5.2PL0 Copyright (c) Steve Scherf et al.
# Submitted via: audiograbber 1.83.01
#
DISCID=42032c05
DTITLE=Mister Blues - Mister Blues (Promo)
DYEAR=2013
DGENRE=Blues
TTITLE0=Mister Blues (Vom Brakenberg)
TTITLE1=Kamasutra Kati
TTITLE2=Komm Mit
TTITLE3=Hottentotten Verein
TTITLE4=15 Bier Und 13 Korn
EXTD=
EXTT0=
EXTT1=
EXTT2=
EXTT3=
EXTT4=
PLAYORDER=
